<svg xmlns="http://www.w3.org/2000/svg" width="241" height="296" fill="none" viewBox="0 0 241 296"><g clip-path="url(#clip0_248_600)"><g filter="url(#filter0_ii_248_600)"><path fill="#4876F9" fill-rule="evenodd" d="M33.7092 0C15.0921 0 0 15.0921 0 33.7092V262.291C0 280.908 15.0922 296 33.7092 296H206.051C224.668 296 239.76 280.908 239.76 262.291V33.7092C239.76 33.6939 239.76 33.6786 239.76 33.6633V74L165.76 0H33.7092Z" clip-rule="evenodd"/></g><g filter="url(#filter1_dd_248_600)"><path fill="#fff" d="M41.9469 90.8498V110.927C41.9467 111.586 41.8164 112.239 41.5635 112.848C41.3106 113.457 40.94 114.01 40.4731 114.476C39.5294 115.417 38.2506 115.946 36.9175 115.946H26.648C25.3151 115.946 24.0364 115.418 23.0924 114.477C22.6253 114.011 22.2546 113.458 22.0017 112.848C21.7488 112.239 21.6186 111.586 21.6186 110.926V90.8498H41.9469V90.8498ZM36.9175 102.352H26.648V112.433H36.9175V102.352ZM41.7787 70.7729V80.8539H31.6783V70.7729H41.7787V70.7729ZM31.804 0V10.1641H41.9469V20.3283H31.8031V29.7393H41.9469V39.9035H31.804V49.9429H41.9469V59.9823H31.804V70.0207H21.6186V59.9813H31.7615V49.9419H21.6186V39.9035H31.7615V29.7393H21.6186V19.5752H31.7615V10.1641H21.6186V0H31.804Z"/></g><path fill="url(#paint0_linear_248_600)" d="M232.817 67.0624H172.697L239.76 134.125L239.76 73.9999L232.817 67.0624Z"/><path fill="#B5C8FC" d="M199.469 74L239.76 74L165.76 -1.40987e-05L165.76 40.2908C165.76 58.9079 180.852 74 199.469 74Z"/><path fill="#fff" d="M77.8624 195.888C77.8624 203.609 79.5591 207.087 85.8372 207.087H102.211C109.168 207.087 111.458 203.778 111.034 196.737L108.15 148.379C108.065 147.531 108.15 147.361 108.404 147.361H108.659C108.913 147.361 108.998 147.446 109.083 147.87L112.052 159.323L123.506 195.549C125.966 203.439 128.511 207.087 134.619 207.087H151.078C158.289 207.087 160.495 203.694 160.495 196.143V92.2158C160.495 85.259 157.865 83.0532 147.939 83.0532H140.049C130.886 83.0532 126.814 83.9864 127.323 92.0461L130.038 141.592C130.038 141.931 130.038 142.101 129.784 142.101H129.444C129.19 142.101 129.105 142.016 129.02 141.507L126.051 128.442L115.616 92.5551C113.579 85.3438 109.846 83.0532 102.381 83.0532H91.182C81.7649 83.0532 77.8624 84.0713 77.8624 92.5551V195.888Z"/></g><defs><filter id="filter0_ii_248_600" width="239.76" height="300.214" x="0" y="-2.107" color-interpolation-filters="sRGB" filterUnits="userSpaceOnUse"><feFlood flood-opacity="0" result="BackgroundImageFix"/><feBlend in="SourceGraphic" in2="BackgroundImageFix" mode="normal" result="shape"/><feColorMatrix in="SourceAlpha" result="hardAlpha" type="matrix" values="0 0 0 0 0 0 0 0 0 0 0 0 0 0 0 0 0 0 127 0"/><feOffset dy="-4.214"/><feGaussianBlur stdDeviation="1.053"/><feComposite in2="hardAlpha" k2="-1" k3="1" operator="arithmetic"/><feColorMatrix type="matrix" values="0 0 0 0 0 0 0 0 0 0 0 0 0 0 0 0 0 0 0.125 0"/><feBlend in2="shape" mode="normal" result="effect1_innerShadow_248_600"/><feColorMatrix in="SourceAlpha" result="hardAlpha" type="matrix" values="0 0 0 0 0 0 0 0 0 0 0 0 0 0 0 0 0 0 127 0"/><feOffset dy="4.214"/><feGaussianBlur stdDeviation="1.053"/><feComposite in2="hardAlpha" k2="-1" k3="1" operator="arithmetic"/><feColorMatrix type="matrix" values="0 0 0 0 1 0 0 0 0 1 0 0 0 0 1 0 0 0 0.15 0"/><feBlend in2="effect1_innerShadow_248_600" mode="normal" result="effect2_innerShadow_248_600"/></filter><filter id="filter1_dd_248_600" width="29.799" height="127.521" x="20.566" y="-1.052" color-interpolation-filters="sRGB" filterUnits="userSpaceOnUse"><feFlood flood-opacity="0" result="BackgroundImageFix"/><feColorMatrix in="SourceAlpha" result="hardAlpha" type="matrix" values="0 0 0 0 0 0 0 0 0 0 0 0 0 0 0 0 0 0 127 0"/><feOffset dx="4.209" dy="6.314"/><feGaussianBlur stdDeviation="2.105"/><feColorMatrix type="matrix" values="0 0 0 0 0 0 0 0 0 0 0 0 0 0 0 0 0 0 0.1 0"/><feBlend in2="BackgroundImageFix" mode="normal" result="effect1_dropShadow_248_600"/><feColorMatrix in="SourceAlpha" result="hardAlpha" type="matrix" values="0 0 0 0 0 0 0 0 0 0 0 0 0 0 0 0 0 0 127 0"/><feOffset/><feGaussianBlur stdDeviation=".526"/><feColorMatrix type="matrix" values="0 0 0 0 0 0 0 0 0 0 0 0 0 0 0 0 0 0 0.4 0"/><feBlend in2="effect1_dropShadow_248_600" mode="normal" result="effect2_dropShadow_248_600"/><feBlend in="SourceGraphic" in2="effect2_dropShadow_248_600" mode="normal" result="shape"/></filter><linearGradient id="paint0_linear_248_600" x1="187.729" x2="254.791" y1="52.031" y2="119.094" gradientUnits="userSpaceOnUse"><stop stop-opacity=".2"/><stop offset="1" stop-opacity="0"/></linearGradient><clipPath id="clip0_248_600"><rect width="240.376" height="296" fill="#fff"/></clipPath></defs></svg>