<svg xmlns="http://www.w3.org/2000/svg" width="230" height="69" fill="none" viewBox="0 0 230 69"><path fill="#fff" d="M2.74412 62.1582C2.74412 66.1832 3.62873 67.9967 6.90181 67.9967H15.4383C19.0653 67.9967 20.2595 66.2717 20.0384 62.6005L18.5345 37.389C18.4903 36.9467 18.5345 36.8582 18.6672 36.8582H18.7999C18.9326 36.8582 18.9768 36.9025 19.021 37.1236L20.5691 43.0948L26.5403 61.9813C27.823 66.0948 29.1499 67.9967 32.3345 67.9967H40.9153C44.6749 67.9967 45.8249 66.2275 45.8249 62.2909V8.10824C45.8249 4.48131 44.4537 3.33132 39.2787 3.33132H35.1653C30.3884 3.33132 28.2653 3.81785 28.5307 8.01978L29.946 33.8505C29.946 34.0275 29.946 34.1159 29.8134 34.1159H29.6364C29.5037 34.1159 29.4595 34.0717 29.4153 33.8063L27.8672 26.9948L22.4268 8.28516C21.3653 4.52555 19.4191 3.33132 15.5268 3.33132H9.68835C4.77873 3.33132 2.74412 3.86209 2.74412 8.28516V62.1582Z"/><path fill="#fff" d="M73.1449 50.455C73.1449 38.8975 71.1611 34.585 60.6961 34.7C51.2374 34.815 48.6499 38.265 48.6499 50.57C48.6499 61.955 50.7774 66.325 61.1561 66.2675C70.4711 66.095 73.1449 62.53 73.1449 50.455ZM65.1811 53.9912C65.1811 58.9362 64.2611 60.6037 61.0124 60.6325C57.4474 60.6325 56.6136 58.9075 56.6136 54.0487V47.0337C56.5849 42.0887 57.4186 40.3637 60.8974 40.335C64.5199 40.335 65.1811 42.2037 65.1811 47.005V53.9912ZM77.8505 39.4725C77.8505 40.1912 78.2817 40.8237 79.2305 40.8237H80.668V56.895C80.668 62.6737 82.0767 65.75 87.8842 65.75H91.133C92.628 65.75 93.088 65.175 93.088 63.9962V61.3512C93.088 60.4312 92.628 60.2587 91.9955 60.2587H90.5292C89.178 60.2587 88.2867 59.425 88.2867 56.9812V40.8237H91.708C92.398 40.8237 92.973 40.6225 92.973 39.4725V36.7125C92.973 35.5625 92.513 35.3037 91.708 35.3037H88.2867V30.5025C88.2867 28.7775 87.2805 28.375 86.2742 28.375H83.6292C82.6805 28.375 81.9617 28.72 81.7605 29.9275L80.9842 35.3037H78.9717C78.368 35.3037 77.8505 35.9362 77.8505 36.6837V39.4725ZM98.2756 50.1675C98.2756 62.2425 99.7994 66.2675 110.466 66.2675C118.199 66.2675 122.426 64.025 122.426 56.9525C122.426 56.3487 122.196 55.63 120.988 55.63H116.474C115.497 55.63 114.692 56.0037 114.692 56.9525V57.0675C114.692 59.2525 113.599 60.6612 110.552 60.6325C107.016 60.575 106.239 59.2237 106.239 54.595V52.6112H120.442C121.793 52.6112 122.771 51.6337 122.771 49.5637C122.771 38.0637 120.586 34.7 110.264 34.7C100.461 34.7 98.2756 38.5525 98.2756 50.1675ZM106.239 47.7525V45.2225C106.239 41.945 107.044 40.335 110.466 40.335C114.059 40.335 114.807 41.945 114.807 45.2225V47.7525H106.239ZM128.964 63.7087C128.964 65.405 129.597 65.7788 131.926 65.7788H133.766C136.066 65.7788 136.641 65.405 136.641 63.7087V43.095C137.331 41.8012 138.912 41.0537 140.752 41.0537C143.167 41.0537 143.886 42.4912 143.886 44.6187V63.7087C143.886 65.405 144.461 65.7788 146.818 65.7788H148.629C150.929 65.7788 151.533 65.405 151.533 63.7087V43.3537C152.194 42.0312 153.546 41.0537 155.702 41.0537C158.031 41.0537 158.749 42.06 158.749 44.8775V63.7087C158.749 65.405 159.324 65.7788 161.682 65.7788H163.522C165.793 65.7788 166.426 65.405 166.426 63.7087V42.7212C166.426 37.1437 163.781 34.7 158.117 34.7C154.236 34.7 151.562 36.08 150.182 37.9487C149.118 35.965 146.674 34.7287 143.167 34.7C139.573 34.6712 137.072 35.85 135.634 37.7475C133.967 35.3612 132.587 34.7 131.207 34.7C129.741 34.7 128.964 35.1887 128.964 36.9712V63.7087ZM197.047 50.455C197.047 38.8975 195.063 34.585 184.598 34.7C175.14 34.815 172.552 38.265 172.552 50.57C172.552 61.955 174.68 66.325 185.058 66.2675C194.373 66.095 197.047 62.53 197.047 50.455ZM189.083 53.9912C189.083 58.9362 188.163 60.6037 184.915 60.6325C181.35 60.6325 180.516 58.9075 180.516 54.0487V47.0337C180.487 42.0887 181.321 40.3637 184.8 40.335C188.422 40.335 189.083 42.2037 189.083 47.005V53.9912ZM203.353 63.7087C203.353 65.405 203.986 65.7788 206.315 65.7788H208.155C210.455 65.7788 211.03 65.405 211.03 63.7087V43.1525C211.777 42.175 213.416 41.0537 215.773 41.0537C218.39 41.0537 219.367 42.1175 219.367 45.8262V63.7087C219.367 65.405 219.942 65.7788 222.3 65.7788H224.111C226.44 65.7788 227.015 65.405 227.015 63.7087V43.9C227.015 37.575 224.801 34.7575 218.447 34.7C214.393 34.6712 211.691 35.8787 210.023 37.92C208.701 35.5912 206.89 34.7 205.452 34.7C204.13 34.7 203.353 35.1887 203.353 36.7412V63.7087Z"/></svg>