<svg width="109" height="35" viewBox="0 0 109 35" fill="none" xmlns="http://www.w3.org/2000/svg">
<g filter="url(#filter0_d_37_41)">
<path d="M34.0753 25.084C34.0753 19.858 33.1783 17.908 28.4463 17.96C24.1693 18.012 22.9993 19.572 22.9993 25.136C22.9993 30.284 23.9613 32.26 28.6543 32.234C32.8663 32.156 34.0753 30.544 34.0753 25.084ZM30.4743 26.683C30.4743 28.919 30.0583 29.673 28.5893 29.686C26.9773 29.686 26.6003 28.906 26.6003 26.709V23.537C26.5873 21.301 26.9643 20.521 28.5373 20.508C30.1753 20.508 30.4743 21.353 30.4743 23.524V26.683ZM36.453 20.118C36.453 20.443 36.648 20.729 37.077 20.729H37.727V27.996C37.727 30.609 38.364 32 40.99 32H42.459C43.135 32 43.343 31.74 43.343 31.207V30.011C43.343 29.595 43.135 29.517 42.849 29.517H42.186C41.575 29.517 41.172 29.14 41.172 28.035V20.729H42.719C43.031 20.729 43.291 20.638 43.291 20.118V18.87C43.291 18.35 43.083 18.233 42.719 18.233H41.172V16.062C41.172 15.282 40.717 15.1 40.262 15.1H39.066C38.637 15.1 38.312 15.256 38.221 15.802L37.87 18.233H36.96C36.687 18.233 36.453 18.519 36.453 18.857V20.118ZM45.9388 24.954C45.9388 30.414 46.6278 32.234 51.4508 32.234C54.9478 32.234 56.8588 31.22 56.8588 28.022C56.8588 27.749 56.7548 27.424 56.2088 27.424H54.1678C53.7258 27.424 53.3618 27.593 53.3618 28.022V28.074C53.3618 29.062 52.8678 29.699 51.4898 29.686C49.8908 29.66 49.5398 29.049 49.5398 26.956V26.059H55.9618C56.5728 26.059 57.0148 25.617 57.0148 24.681C57.0148 19.481 56.0268 17.96 51.3598 17.96C46.9268 17.96 45.9388 19.702 45.9388 24.954ZM49.5398 23.862V22.718C49.5398 21.236 49.9038 20.508 51.4508 20.508C53.0758 20.508 53.4138 21.236 53.4138 22.718V23.862H49.5398ZM60.0655 31.077C60.0655 31.844 60.3515 32.013 61.4045 32.013H62.2365C63.2765 32.013 63.5365 31.844 63.5365 31.077V21.756C63.8485 21.171 64.5635 20.833 65.3955 20.833C66.4875 20.833 66.8125 21.483 66.8125 22.445V31.077C66.8125 31.844 67.0725 32.013 68.1385 32.013H68.9575C69.9975 32.013 70.2705 31.844 70.2705 31.077V21.873C70.5695 21.275 71.1805 20.833 72.1555 20.833C73.2085 20.833 73.5335 21.288 73.5335 22.562V31.077C73.5335 31.844 73.7935 32.013 74.8595 32.013H75.6915C76.7185 32.013 77.0045 31.844 77.0045 31.077V21.587C77.0045 19.065 75.8085 17.96 73.2475 17.96C71.4925 17.96 70.2835 18.584 69.6595 19.429C69.1785 18.532 68.0735 17.973 66.4875 17.96C64.8625 17.947 63.7315 18.48 63.0815 19.338C62.3275 18.259 61.7035 17.96 61.0795 17.96C60.4165 17.96 60.0655 18.181 60.0655 18.987V31.077ZM91.1007 25.084C91.1007 19.858 90.2037 17.908 85.4717 17.96C81.1947 18.012 80.0247 19.572 80.0247 25.136C80.0247 30.284 80.9867 32.26 85.6797 32.234C89.8917 32.156 91.1007 30.544 91.1007 25.084ZM87.4997 26.683C87.4997 28.919 87.0837 29.673 85.6147 29.686C84.0027 29.686 83.6257 28.906 83.6257 26.709V23.537C83.6127 21.301 83.9897 20.521 85.5627 20.508C87.2007 20.508 87.4997 21.353 87.4997 23.524V26.683ZM94.2022 31.077C94.2022 31.844 94.4882 32.013 95.5412 32.013H96.3732C97.4132 32.013 97.6732 31.844 97.6732 31.077V21.782C98.0112 21.34 98.7522 20.833 99.8182 20.833C101.001 20.833 101.443 21.314 101.443 22.991V31.077C101.443 31.844 101.703 32.013 102.769 32.013H103.588C104.641 32.013 104.901 31.844 104.901 31.077V22.12C104.901 19.26 103.9 17.986 101.027 17.96C99.1942 17.947 97.9722 18.493 97.2182 19.416C96.6202 18.363 95.8012 17.96 95.1512 17.96C94.5532 17.96 94.2022 18.181 94.2022 18.883V31.077Z" fill="#04263D"/>
<path d="M1.26063 29.36C1.26063 31.18 1.66063 32 3.14063 32H7.00063C8.64063 32 9.18063 31.22 9.08063 29.56L8.40063 18.16C8.38063 17.96 8.40063 17.92 8.46063 17.92H8.52063C8.58063 17.92 8.60063 17.94 8.62063 18.04L9.32063 20.74L12.0206 29.28C12.6006 31.14 13.2006 32 14.6406 32H18.5206C20.2206 32 20.7406 31.2 20.7406 29.42V4.92C20.7406 3.28 20.1206 2.76 17.7806 2.76H15.9206C13.7606 2.76 12.8006 2.98 12.9206 4.88L13.5606 16.56C13.5606 16.64 13.5606 16.68 13.5006 16.68H13.4206C13.3606 16.68 13.3406 16.66 13.3206 16.54L12.6206 13.46L10.1606 5C9.68063 3.3 8.80063 2.76 7.04063 2.76H4.40063C2.18063 2.76 1.26063 3 1.26063 5V29.36Z" fill="#29947F"/>
</g>
<defs>
<filter id="filter0_d_37_41" x="1.26074" y="0.76001" width="107.64" height="33.5" filterUnits="userSpaceOnUse" color-interpolation-filters="sRGB">
<feFlood flood-opacity="0" result="BackgroundImageFix"/>
<feColorMatrix in="SourceAlpha" type="matrix" values="0 0 0 0 0 0 0 0 0 0 0 0 0 0 0 0 0 0 127 0" result="hardAlpha"/>
<feOffset dx="2"/>
<feGaussianBlur stdDeviation="1"/>
<feComposite in2="hardAlpha" operator="out"/>
<feColorMatrix type="matrix" values="0 0 0 0 0 0 0 0 0 0 0 0 0 0 0 0 0 0 0.1 0"/>
<feBlend mode="normal" in2="BackgroundImageFix" result="effect1_dropShadow_37_41"/>
<feBlend mode="normal" in="SourceGraphic" in2="effect1_dropShadow_37_41" result="shape"/>
</filter>
</defs>
</svg>
