<svg fill="none" height="228" viewBox="0 0 754 228" width="754" xmlns="http://www.w3.org/2000/svg">
  <g filter="url(#filter0_d_93_97)">
    <path
      d="M8.92592 201.042C8.92592 214.134 11.8033 220.033 22.4498 220.033H50.2169C62.0143 220.033 65.8988 214.422 65.1795 202.481L60.2879 120.474C60.144 119.036 60.2879 118.748 60.7195 118.748H61.1511C61.5827 118.748 61.7266 118.892 61.8704 119.611L66.9059 139.034L86.3285 200.467C90.5008 213.847 94.8169 220.033 105.176 220.033H133.087C145.316 220.033 149.056 214.278 149.056 201.474V25.2317C149.056 13.4342 144.596 9.6936 127.763 9.6936H114.383C98.8453 9.6936 91.9395 11.2762 92.8027 24.9439L97.4066 108.965C97.4066 109.54 97.4066 109.828 96.975 109.828H96.3995C95.9679 109.828 95.824 109.684 95.6801 108.821L90.6446 86.6646L72.9485 25.8071C69.4956 13.5781 63.1653 9.6936 50.5046 9.6936H31.5137C15.544 9.6936 8.92592 11.42 8.92592 25.8071V201.042Z"
      fill="white"/>
  </g>
  <g filter="url(#filter1_d_93_97)">
    <path
      d="M238.296 165.766C238.296 128.172 231.843 114.145 197.803 114.519C167.036 114.893 158.62 126.115 158.62 166.14C158.62 203.172 165.54 217.386 199.299 217.199C229.599 216.638 238.296 205.042 238.296 165.766ZM212.392 177.268C212.392 193.353 209.399 198.777 198.832 198.87C187.236 198.87 184.524 193.259 184.524 177.455V154.637C184.43 138.552 187.142 132.941 198.458 132.848C210.241 132.848 212.392 138.926 212.392 154.544V177.268ZM253.602 130.042C253.602 132.38 255.004 134.438 258.091 134.438H262.766V186.713C262.766 205.51 267.349 215.516 286.239 215.516H296.806C301.669 215.516 303.165 213.646 303.165 209.812V201.208C303.165 198.216 301.669 197.655 299.612 197.655H294.842C290.447 197.655 287.548 194.943 287.548 186.994V134.438H298.677C300.921 134.438 302.791 133.783 302.791 130.042V121.065C302.791 117.324 301.295 116.483 298.677 116.483H287.548V100.865C287.548 95.2544 284.275 93.9451 281.002 93.9451H272.398C269.312 93.9451 266.975 95.0673 266.32 98.995L263.795 116.483H257.249C255.285 116.483 253.602 118.54 253.602 120.971V130.042ZM320.039 164.83C320.039 204.107 324.996 217.199 359.69 217.199C384.846 217.199 398.593 209.905 398.593 186.9C398.593 184.936 397.845 182.598 393.917 182.598H379.235C376.055 182.598 373.437 183.814 373.437 186.9V187.274C373.437 194.381 369.883 198.964 359.971 198.87C348.468 198.683 345.943 194.288 345.943 179.232V172.779H392.14C396.535 172.779 399.715 169.6 399.715 162.867C399.715 125.46 392.608 114.519 359.035 114.519C327.146 114.519 320.039 127.05 320.039 164.83ZM345.943 156.975V148.746C345.943 138.085 348.562 132.848 359.69 132.848C371.38 132.848 373.811 138.085 373.811 148.746V156.975H345.943ZM419.862 208.876C419.862 214.394 421.919 215.61 429.494 215.61H435.479C442.96 215.61 444.831 214.394 444.831 208.876V141.825C447.075 137.617 452.219 135.186 458.204 135.186C466.059 135.186 468.397 139.862 468.397 146.782V208.876C468.397 214.394 470.267 215.61 477.935 215.61H483.827C491.308 215.61 493.272 214.394 493.272 208.876V142.667C495.423 138.365 499.818 135.186 506.832 135.186C514.407 135.186 516.745 138.459 516.745 147.623V208.876C516.745 214.394 518.615 215.61 526.283 215.61H532.268C539.656 215.61 541.713 214.394 541.713 208.876V140.61C541.713 122.468 533.11 114.519 514.687 114.519C502.063 114.519 493.366 119.007 488.877 125.086C485.417 118.633 477.468 114.612 466.059 114.519C454.369 114.425 446.234 118.259 441.558 124.431C436.134 116.67 431.645 114.519 427.156 114.519C422.387 114.519 419.862 116.108 419.862 121.906V208.876ZM641.317 165.766C641.317 128.172 634.864 114.145 600.825 114.519C570.058 114.893 561.641 126.115 561.641 166.14C561.641 203.172 568.561 217.386 602.321 217.199C632.62 216.638 641.317 205.042 641.317 165.766ZM615.413 177.268C615.413 193.353 612.421 198.777 601.853 198.87C590.257 198.87 587.545 193.259 587.545 177.455V154.637C587.452 138.552 590.164 132.941 601.479 132.848C613.262 132.848 615.413 138.926 615.413 154.544V177.268ZM661.829 208.876C661.829 214.394 663.887 215.61 671.461 215.61H677.447C684.928 215.61 686.798 214.394 686.798 208.876V142.012C689.23 138.833 694.56 135.186 702.228 135.186C710.738 135.186 713.918 138.646 713.918 150.709V208.876C713.918 214.394 715.788 215.61 723.456 215.61H729.348C736.923 215.61 738.793 214.394 738.793 208.876V144.444C738.793 123.87 731.592 114.706 710.925 114.519C697.74 114.425 688.949 118.353 683.525 124.992C679.223 117.418 673.332 114.519 668.656 114.519C664.354 114.519 661.829 116.108 661.829 121.158V208.876Z"
      fill="white"/>
  </g>
  <defs>
    <filter color-interpolation-filters="sRGB" filterUnits="userSpaceOnUse" height="224.726"
            id="filter0_d_93_97" width="154.517" x="8.92593" y="2.50006">
      <feFlood flood-opacity="0" result="BackgroundImageFix"/>
      <feColorMatrix in="SourceAlpha" result="hardAlpha" type="matrix"
                     values="0 0 0 0 0 0 0 0 0 0 0 0 0 0 0 0 0 0 127 0"/>
      <feOffset dx="7.19355"/>
      <feGaussianBlur stdDeviation="3.59677"/>
      <feComposite in2="hardAlpha" operator="out"/>
      <feColorMatrix type="matrix" values="0 0 0 0 1 0 0 0 0 1 0 0 0 0 1 0 0 0 0.15 0"/>
      <feBlend in2="BackgroundImageFix" mode="normal" result="effect1_dropShadow_93_97"/>
      <feBlend in="SourceGraphic" in2="effect1_dropShadow_93_97" mode="normal" result="shape"/>
    </filter>
    <filter color-interpolation-filters="sRGB" filterUnits="userSpaceOnUse" height="137.828"
            id="filter1_d_93_97" width="594.56" x="158.62" y="86.7516">
      <feFlood flood-opacity="0" result="BackgroundImageFix"/>
      <feColorMatrix in="SourceAlpha" result="hardAlpha" type="matrix"
                     values="0 0 0 0 0 0 0 0 0 0 0 0 0 0 0 0 0 0 127 0"/>
      <feOffset dx="7.19355"/>
      <feGaussianBlur stdDeviation="3.59677"/>
      <feComposite in2="hardAlpha" operator="out"/>
      <feColorMatrix type="matrix" values="0 0 0 0 1 0 0 0 0 1 0 0 0 0 1 0 0 0 0.15 0"/>
      <feBlend in2="BackgroundImageFix" mode="normal" result="effect1_dropShadow_93_97"/>
      <feBlend in="SourceGraphic" in2="effect1_dropShadow_93_97" mode="normal" result="shape"/>
    </filter>
  </defs>
</svg>
